<svg id="visual" viewBox="0 0 900 600" width="900" height="600" xmlns="http://www.w3.org/2000/svg" xmlns:xlink="http://www.w3.org/1999/xlink" version="1.1"><rect x="0" y="0" width="900" height="600" fill="#001220"></rect><defs><linearGradient id="grad1_0" x1="33.3%" y1="0%" x2="100%" y2="100%"><stop offset="20%" stop-color="#001220" stop-opacity="1"></stop><stop offset="80%" stop-color="#001220" stop-opacity="1"></stop></linearGradient></defs><defs><linearGradient id="grad2_0" x1="0%" y1="0%" x2="66.7%" y2="100%"><stop offset="20%" stop-color="#001220" stop-opacity="1"></stop><stop offset="80%" stop-color="#001220" stop-opacity="1"></stop></linearGradient></defs><g transform="translate(900, 0)"><path d="M0 486.7C-53.7 461.4 -107.4 436.1 -173.4 418.5C-239.3 400.9 -317.5 391.1 -344.2 344.2C-370.9 297.2 -346.1 213.2 -361.2 149.6C-376.4 86.1 -431.6 43 -486.7 0L0 0Z" fill="#FBAE3C"></path></g><g transform="translate(0, 600)"><path d="M0 -486.7C65.5 -481.4 131.1 -476.1 186.3 -449.7C241.5 -423.3 286.4 -375.7 328.8 -328.8C371.2 -281.9 411.1 -235.7 437 -181C462.9 -126.3 474.8 -63.2 486.7 0L0 0Z" fill="#FBAE3C"></path></g></svg>